# xmcd
#
# Track frame offsets:
# 150
# 16068
# 32576
# 48753
# 66685
# 79617
# 97014
# 115432
# 127063
# 138257
# 160533
# 176136
# 192689
# 210341
#
# Disc length: 2993 seconds
#
#
# Revision: 0
# Processed by: cddbd v1.5PL3 Copyright (c) Steve Scherf et al.
# Submitted via: FreeRIP 2.53 
#
DISCID=c10baf0e
DTITLE=Keith, Toby - Greatest Hits, Volume 1
DYEAR=1900
DGENRE=
TTITLE0=Getcha Some
TTITLE1=If A Man Answers
TTITLE2=Should've Been A Cowboy
TTITLE3=Dream Walking
TTITLE4=A Little Less Talk and A Lot More Action
TTITLE5=Does That Blue Moon Ever Shine On You
TTITLE6=I'm So Happy I Can't Stop Crying
TTITLE7=We Were In Love
TTITLE8=You Ain't Much Fun
TTITLE9=Who's That Man
TTITLE10=Wish I Didn't Know Now
TTITLE11=Big Ol' Truck
TTITLE12=Me Too
TTITLE13=He Ain't Worth Missing
EXTD=
EXTT0=
EXTT1=
EXTT2=
EXTT3=
EXTT4=
EXTT5=
EXTT6=
EXTT7=
EXTT8=
EXTT9=
EXTT10=
EXTT11=
EXTT12=
EXTT13=
PLAYORDER=
